<?xml version="1.0" encoding="utf-8"?>
<!-- Generator: Adobe Illustrator 25.1.0, SVG Export Plug-In . SVG Version: 6.00 Build 0)  -->
<svg version="1.1" xmlns="http://www.w3.org/2000/svg" xmlns:xlink="http://www.w3.org/1999/xlink" x="0px" y="0px"
	 viewBox="0 0 4000 4000" style="enable-background:new 0 0 4000 4000;" xml:space="preserve">
<style type="text/css">
	.st0{fill:#FFFFFF;}
	.st1{display:none;opacity:0.1;}
	.st2{display:inline;}
	.st3{fill-rule:evenodd;clip-rule:evenodd;fill:#FF0000;}
	.st4{display:inline;fill:#00FF00;}
	.st5{fill-rule:evenodd;clip-rule:evenodd;}
</style>
<g id="bg">
	<rect x="0.5" y="0.5" class="st0" width="4000" height="4000"/>
</g>
<g id="outer">
	<g>
		<path d="M3048,572v2856H952V572H3048 M3148,472H852v3056h2296V472L3148,472z"/>
	</g>
</g>
<g id="guide" class="st1">
	<g class="st2">
		<rect x="1052" y="672" class="st3" width="1896" height="2656"/>
	</g>
	<rect x="1052" y="2672" class="st4" width="1896" height="656"/>
	<rect x="1052" y="672" class="st4" width="1896" height="1672"/>
</g>
<g id="inner">
	<g>
		<path d="M2791.5,772l56.5,56.5V2244H1152v-878.1L1745.9,772H2791.5 M2832.9,672H1704.5L1052,1324.5V2344h1896V787.1L2832.9,672
			L2832.9,672z"/>
	</g>
	<polygon class="st5" points="2949,1100.2 2949,958.8 1634,2273.8 1704.3,2344 1705.2,2344 	"/>
	<path class="st5" d="M1717,2268h1183V1085L1717,2268z M2426.6,2104.4l-70.7-70.7l0,0l-77-77l70.7-70.7l77,77l224.7-224.7l70.7,70.7
		L2426.6,2104.4z"/>
</g>
<g id="text">
	<g>
		<g>
			<g>
				<path d="M1242.4,2996.5h-67.7c-0.4-4.2-1.8-7.8-4.4-10.8c-2.6-3-5.9-5.4-9.9-7c-4-1.6-8.5-2.5-13.4-2.5
					c-6.3,0-11.7,1.2-16.3,3.5c-4.5,2.3-6.8,5.6-6.7,9.9c-0.1,3,1.2,5.8,3.9,8.4c2.7,2.6,8,4.6,15.8,6l41.6,7.5
					c21,3.8,36.6,10.2,46.9,19.3c10.3,9,15.4,21.1,15.5,36.2c-0.1,14.6-4.4,27.2-13,37.9c-8.6,10.7-20.3,19-35.1,24.8
					s-31.7,8.7-50.6,8.7c-31.3,0-55.8-6.4-73.4-19.2c-17.6-12.8-27.5-29.7-29.5-50.7h73.1c1,6.5,4.2,11.5,9.7,15
					c5.5,3.5,12.4,5.3,20.7,5.3c6.8,0,12.3-1.2,16.7-3.5c4.4-2.3,6.6-5.6,6.7-9.9c-0.1-3.9-2-7-5.8-9.3c-3.8-2.3-9.7-4.2-17.7-5.6
					l-36.3-6.4c-20.9-3.6-36.5-10.6-46.9-20.8c-10.4-10.2-15.6-23.4-15.5-39.5c-0.1-14.2,3.7-26.3,11.3-36.2
					c7.6-9.9,18.5-17.5,32.7-22.7c14.2-5.2,31-7.8,50.5-7.8c29.6,0,53,6.1,70.1,18.4C1232.5,2957.9,1241.5,2974.8,1242.4,2996.5z"/>
				<path d="M1398.1,2929.9v53.3h-134.9v-53.3H1398.1z M1289.3,2880.8h73.6v188c0,2.8,0.5,5.2,1.5,7.1c1,1.9,2.5,3.3,4.5,4.3
					c2,0.9,4.7,1.4,7.9,1.4c2.2,0,4.8-0.3,7.8-0.8c3-0.5,5.2-1,6.6-1.3l10.7,51.7c-3.3,1-8,2.2-14.1,3.6c-6.1,1.4-13.3,2.4-21.7,2.8
					c-16.9,0.9-31.1-0.9-42.5-5.3c-11.5-4.4-20.1-11.4-25.9-20.9c-5.8-9.5-8.6-21.4-8.4-35.7V2880.8z"/>
				<path d="M1485.1,3137.9c-13.1,0-24.6-2.2-34.6-6.5c-10-4.3-17.8-10.9-23.5-19.7c-5.7-8.8-8.5-20-8.5-33.6
					c0-11.2,1.9-20.8,5.7-28.7c3.8-8,9.2-14.5,16-19.5c6.8-5.1,14.8-8.9,23.9-11.6c9.1-2.7,19-4.4,29.5-5.2
					c11.5-0.9,20.7-2,27.7-3.3c7-1.3,12-3.1,15.1-5.5c3.1-2.4,4.7-5.5,4.7-9.4v-0.5c0-5.3-2-9.4-6.1-12.3c-4.1-2.8-9.3-4.3-15.7-4.3
					c-7,0-12.7,1.5-17.1,4.6c-4.4,3.1-7,7.8-7.9,14.1h-67.7c0.9-12.4,4.9-23.9,11.9-34.5s17.4-19,31-25.3
					c13.6-6.4,30.6-9.5,50.9-9.5c14.7,0,27.8,1.7,39.5,5.1c11.6,3.4,21.6,8.2,29.7,14.3c8.2,6.1,14.4,13.2,18.7,21.3
					c4.3,8.1,6.5,17,6.5,26.5v140.3h-68.8v-28.8h-1.6c-4.1,7.6-9,13.8-14.9,18.5c-5.8,4.7-12.4,8.1-19.9,10.3
					C1502.1,3136.8,1494,3137.9,1485.1,3137.9z M1509.1,3091.5c5.6,0,10.9-1.2,15.8-3.5c4.9-2.3,9-5.6,12.1-10
					c3.1-4.4,4.7-9.6,4.7-15.9v-17.1c-2,0.8-4,1.6-6.2,2.3c-2.2,0.7-4.5,1.4-6.9,2c-2.4,0.6-5,1.2-7.7,1.7c-2.7,0.5-5.5,1-8.5,1.5
					c-5.7,0.9-10.3,2.3-13.9,4.3s-6.3,4.4-8,7.3c-1.7,2.9-2.6,6.1-2.6,9.7c0,5.7,2,10,6,13.1
					C1497.7,3090,1502.8,3091.5,1509.1,3091.5z"/>
				<path d="M1723.5,3019.5v115.2h-73.6v-204.8h69.9v38.9h2.1c4.4-13,12.3-23.2,23.5-30.5c11.2-7.4,24.4-11.1,39.4-11.1
					c14.5,0,27.1,3.3,37.8,9.9c10.7,6.6,19,15.7,24.9,27.3c5.9,11.6,8.8,24.8,8.7,39.6v130.7h-73.6v-115.2
					c0.1-10.1-2.5-18.1-7.7-23.9c-5.2-5.8-12.4-8.7-21.7-8.7c-6,0-11.3,1.3-15.8,3.9c-4.5,2.6-7.9,6.4-10.3,11.2
					C1724.8,3006.9,1723.6,3012.7,1723.5,3019.5z"/>
				<path d="M1966.7,3137.3c-14.6,0-28-3.8-40.2-11.5c-12.2-7.6-22-19.2-29.3-34.8c-7.3-15.6-11-35.2-11-58.8
					c0-24.7,3.8-44.8,11.5-60.3c7.7-15.5,17.6-26.8,29.9-34c12.2-7.2,25.1-10.8,38.6-10.8c10.1,0,19,1.8,26.7,5.3
					c7.6,3.5,14,8.2,19.2,14c5.2,5.8,9.1,12.2,11.7,19.1h1.1v-104h73.6v273.1h-73.1v-33.6h-1.6c-2.8,6.9-6.9,13.1-12.2,18.6
					c-5.3,5.5-11.7,9.8-19.2,12.9C1984.8,3135.8,1976.3,3137.3,1966.7,3137.3z M1993.9,3080.8c6.8,0,12.6-2,17.4-5.9
					c4.8-4,8.6-9.6,11.2-16.8c2.6-7.2,3.9-15.8,3.9-25.8c0-10.1-1.3-18.8-3.9-26.1c-2.6-7.2-6.4-12.8-11.2-16.7
					c-4.8-3.9-10.6-5.8-17.4-5.8c-6.8,0-12.5,1.9-17.3,5.8c-4.8,3.9-8.4,9.4-10.9,16.7c-2.5,7.2-3.8,15.9-3.8,26.1
					s1.3,18.8,3.8,26.1c2.5,7.2,6.2,12.8,10.9,16.7C1981.4,3078.9,1987.1,3080.8,1993.9,3080.8z"/>
				<path d="M2191.7,3137.9c-13.1,0-24.6-2.2-34.6-6.5s-17.8-10.9-23.5-19.7c-5.7-8.8-8.5-20-8.5-33.6c0-11.2,1.9-20.8,5.7-28.7
					c3.8-8,9.2-14.5,16-19.5c6.8-5.1,14.8-8.9,23.9-11.6c9.1-2.7,19-4.4,29.5-5.2c11.5-0.9,20.7-2,27.7-3.3c7-1.3,12-3.1,15.1-5.5
					c3.1-2.4,4.7-5.5,4.7-9.4v-0.5c0-5.3-2-9.4-6.1-12.3c-4.1-2.8-9.3-4.3-15.7-4.3c-7,0-12.7,1.5-17.1,4.6c-4.4,3.1-7,7.8-7.9,14.1
					h-67.7c0.9-12.4,4.9-23.9,11.9-34.5c7.1-10.5,17.4-19,31-25.3c13.6-6.4,30.6-9.5,50.9-9.5c14.7,0,27.8,1.7,39.5,5.1
					c11.6,3.4,21.6,8.2,29.7,14.3c8.2,6.1,14.4,13.2,18.7,21.3c4.3,8.1,6.5,17,6.5,26.5v140.3h-68.8v-28.8h-1.6
					c-4.1,7.6-9,13.8-14.9,18.5c-5.8,4.7-12.4,8.1-19.9,10.3C2208.8,3136.8,2200.6,3137.9,2191.7,3137.9z M2215.7,3091.5
					c5.6,0,10.9-1.2,15.8-3.5c4.9-2.3,9-5.6,12.1-10c3.1-4.4,4.7-9.6,4.7-15.9v-17.1c-2,0.8-4,1.6-6.2,2.3c-2.2,0.7-4.5,1.4-6.9,2
					c-2.4,0.6-5,1.2-7.7,1.7c-2.7,0.5-5.5,1-8.5,1.5c-5.7,0.9-10.3,2.3-13.9,4.3c-3.6,2-6.3,4.4-8,7.3c-1.7,2.9-2.6,6.1-2.6,9.7
					c0,5.7,2,10,6,13.1C2204.4,3090,2209.5,3091.5,2215.7,3091.5z"/>
				<path d="M2356.5,3134.7v-204.8h71.5v38.9h2.1c3.7-14.4,9.7-24.9,17.8-31.6s17.7-10,28.6-10c3.2,0,6.4,0.2,9.5,0.7
					c3.2,0.5,6.2,1.2,9.1,2.1v62.8c-3.6-1.2-8.1-2.2-13.5-2.8c-5.3-0.6-9.9-0.9-13.7-0.9c-7.2,0-13.7,1.6-19.4,4.9
					c-5.7,3.2-10.2,7.8-13.5,13.6c-3.3,5.8-4.9,12.6-4.9,20.5v106.7H2356.5z"/>
				<path d="M2593.3,3137.3c-14.6,0-28-3.8-40.2-11.5c-12.2-7.6-22-19.2-29.3-34.8c-7.3-15.6-11-35.2-11-58.8
					c0-24.7,3.8-44.8,11.5-60.3c7.7-15.5,17.6-26.8,29.9-34c12.2-7.2,25.1-10.8,38.6-10.8c10.1,0,19,1.8,26.7,5.3
					c7.6,3.5,14,8.2,19.2,14c5.2,5.8,9.1,12.2,11.7,19.1h1.1v-104h73.6v273.1H2652v-33.6h-1.6c-2.8,6.9-6.9,13.1-12.2,18.6
					c-5.3,5.5-11.7,9.8-19.2,12.9C2611.5,3135.8,2602.9,3137.3,2593.3,3137.3z M2620.5,3080.8c6.8,0,12.6-2,17.4-5.9
					c4.8-4,8.6-9.6,11.2-16.8c2.6-7.2,3.9-15.8,3.9-25.8c0-10.1-1.3-18.8-3.9-26.1c-2.6-7.2-6.4-12.8-11.2-16.7
					c-4.8-3.9-10.6-5.8-17.4-5.8c-6.8,0-12.5,1.9-17.3,5.8c-4.8,3.9-8.4,9.4-10.9,16.7c-2.5,7.2-3.8,15.9-3.8,26.1
					s1.3,18.8,3.8,26.1c2.5,7.2,6.2,12.8,10.9,16.7C2608,3078.9,2613.8,3080.8,2620.5,3080.8z"/>
				<path d="M2948.5,2996.5h-67.7c-0.4-4.2-1.8-7.8-4.4-10.8c-2.6-3-5.9-5.4-9.9-7c-4-1.6-8.5-2.5-13.4-2.5
					c-6.3,0-11.7,1.2-16.3,3.5c-4.5,2.3-6.8,5.6-6.7,9.9c-0.1,3,1.2,5.8,3.9,8.4c2.7,2.6,8,4.6,15.8,6l41.6,7.5
					c21,3.8,36.6,10.2,46.9,19.3c10.3,9,15.4,21.1,15.5,36.2c-0.1,14.6-4.4,27.2-13,37.9c-8.6,10.7-20.3,19-35.1,24.8
					s-31.7,8.7-50.6,8.7c-31.3,0-55.8-6.4-73.4-19.2c-17.6-12.8-27.5-29.7-29.5-50.7h73.1c1,6.5,4.2,11.5,9.7,15
					c5.5,3.5,12.4,5.3,20.7,5.3c6.8,0,12.3-1.2,16.7-3.5c4.4-2.3,6.6-5.6,6.7-9.9c-0.1-3.9-2-7-5.8-9.3c-3.8-2.3-9.7-4.2-17.7-5.6
					l-36.3-6.4c-20.9-3.6-36.5-10.6-46.9-20.8c-10.4-10.2-15.6-23.4-15.5-39.5c-0.1-14.2,3.7-26.3,11.3-36.2
					c7.6-9.9,18.5-17.5,32.7-22.7c14.2-5.2,31-7.8,50.5-7.8c29.6,0,53,6.1,70.1,18.4C2938.6,2957.9,2947.6,2974.8,2948.5,2996.5z"/>
			</g>
		</g>
	</g>
</g>
</svg>
